<?xml version="1.0" encoding="UTF-8" standalone="no"?>
<svg
   xmlns:dc="http://purl.org/dc/elements/1.1/"
   xmlns:cc="http://creativecommons.org/ns#"
   xmlns:rdf="http://www.w3.org/1999/02/22-rdf-syntax-ns#"
   xmlns:svg="http://www.w3.org/2000/svg"
   xmlns="http://www.w3.org/2000/svg"
   xmlns:xlink="http://www.w3.org/1999/xlink"
   xmlns:sodipodi="http://sodipodi.sourceforge.net/DTD/sodipodi-0.dtd"
   xmlns:inkscape="http://www.inkscape.org/namespaces/inkscape"
   id="svg8"
   version="1.1"
   viewBox="0 0 210 297"
   height="297mm"
   width="210mm"
   sodipodi:docname="drawing.svg"
   inkscape:version="0.92.5 (2060ec1f9f, 2020-04-08)">
  <sodipodi:namedview
     pagecolor="#ffffff"
     bordercolor="#666666"
     borderopacity="1"
     objecttolerance="10"
     gridtolerance="10"
     guidetolerance="10"
     inkscape:pageopacity="0"
     inkscape:pageshadow="2"
     inkscape:window-width="1848"
     inkscape:window-height="911"
     id="namedview38"
     showgrid="false"
     inkscape:zoom="0.65299523"
     inkscape:cx="396.85039"
     inkscape:cy="561.25984"
     inkscape:window-x="72"
     inkscape:window-y="27"
     inkscape:window-maximized="1"
     inkscape:current-layer="svg8" />
  <defs
     id="defs2">
    <linearGradient
       inkscape:collect="always"
       id="linearGradient44">
      <stop
         style="stop-color:#000000;stop-opacity:1;"
         offset="0"
         id="stop40" />
      <stop
         style="stop-color:#ff0000;stop-opacity:1"
         offset="1"
         id="stop42" />
    </linearGradient>
    <linearGradient
       inkscape:collect="always"
       xlink:href="#linearGradient44"
       id="linearGradient46"
       x1="18.952391"
       y1="165.73901"
       x2="169.77217"
       y2="195.29877"
       gradientUnits="userSpaceOnUse" />
  </defs>
  <metadata
     id="metadata5">
    <rdf:RDF>
      <cc:Work
         rdf:about="">
        <dc:format>image/svg+xml</dc:format>
        <dc:type
           rdf:resource="http://purl.org/dc/dcmitype/StillImage" />
        <dc:title />
      </cc:Work>
    </rdf:RDF>
  </metadata>
  <g
     id="layer1">
    <path
       style="stroke-width:0.26458332"
       d="m 26.547897,42.403958 c 2.336427,0.788532 4.706461,1.3331 6.919682,2.446208 2.006,0.93132 4.005276,1.955583 5.845659,3.187247 2.414382,1.850634 4.790501,3.75217 7.165025,5.654329 1.936862,1.626163 3.615831,3.506946 5.086462,5.557676 1.171675,1.504309 1.946912,3.238407 2.817981,4.915373 1.020689,1.504209 1.626333,3.239783 2.260741,4.932151 0.74749,2.207355 1.733385,4.307935 2.872046,6.336231 1.616954,2.209771 2.885324,4.645398 4.232225,7.023145 1.517467,2.277324 2.786925,4.72454 4.340894,6.977462 0.850443,1.232956 2.215052,2.918253 3.130474,4.0768 2.482193,3.132262 4.976492,6.277401 8.017039,8.88772 0.99555,0.77225 2.048676,1.40913 3.216388,1.87483 0,0 -9.347073,6.20499 -9.347073,6.20499 v 0 c -1.202327,-0.59812 -2.328177,-1.31251 -3.346016,-2.19612 -2.981454,-2.74473 -5.401106,-6.0127 -7.945339,-9.152506 -0.779674,-0.969782 -2.519048,-3.099202 -3.253124,-4.142592 -1.583825,-2.251188 -2.859391,-4.720129 -4.415242,-6.991045 -1.372264,-2.367542 -2.735408,-4.744421 -4.312796,-6.983712 -1.181279,-2.0722 -2.157544,-4.236378 -2.96364,-6.483188 -0.624366,-1.650635 -1.257273,-3.324654 -2.240216,-4.799375 -0.82486,-1.639372 -1.557377,-3.331694 -2.69226,-4.796936 -1.400844,-1.970989 -3.038575,-3.752688 -4.872633,-5.331467 -2.340901,-1.892628 -4.697891,-3.771924 -7.148798,-5.520643 -1.86277,-1.131112 -3.787369,-2.179023 -5.774913,-3.073561 -2.222495,-1.020008 -4.600238,-1.543185 -6.908228,-2.33267 0,0 9.315662,-6.270347 9.315662,-6.270347 z"
       id="path242" />
    <path
       style="stroke-width:0.26458332"
       d="m 89.149379,35.654863 c 1.386557,3.141769 2.036286,6.483747 2.080059,9.901473 -0.107646,3.184739 -1.317678,6.075497 -2.836198,8.818891 -1.377156,2.563693 -3.382949,4.60208 -5.616782,6.419963 -4.644212,3.268911 -9.787646,5.92392 -14.682467,8.706276 -0.637317,0.362268 -1.297162,0.683451 -1.941809,1.032505 -0.6039,0.326993 -2.400051,1.336177 -1.80372,0.995577 2.612732,-1.492298 5.23538,-2.967165 7.853069,-4.450744 -5.810178,3.458151 3.164213,-1.87338 -12.540088,7.258134 -2.712265,1.577091 10.934713,-6.155679 8.160644,-4.690022 -5.237842,2.767372 -9.423919,5.557482 -14.573898,7.83672 -3.446801,1.329229 -6.803078,2.864289 -10.160222,4.401105 -1.346139,0.725361 -2.761435,1.307489 -4.095697,2.055715 -0.366784,0.205687 -1.447321,0.856948 -1.081765,0.649089 8.373843,-4.761463 11.374932,-6.704661 7.65624,-4.3228 -1.977729,1.104514 -3.314708,2.798355 -4.63232,4.586814 -1.776375,2.299436 -2.775069,4.994204 -3.617772,7.74173 -0.715997,3.346505 -1.379665,6.705388 -2.070592,10.059021 -0.432591,2.10871 -0.645533,4.2496 -0.739119,6.39727 -0.03616,1.0371 -0.0361,2.07491 -0.03652,3.11248 0,0 -10.00699,5.09909 -10.00699,5.09909 v 0 c -8.73e-4,-1.05349 -0.0027,-2.10719 0.02849,-3.16034 0.08564,-2.21584 0.297325,-4.42473 0.744733,-6.59999 0.685961,-3.38572 1.487737,-6.74542 2.066455,-10.152477 0.757584,-2.837849 1.662832,-5.661408 3.397409,-8.072053 1.328171,-1.829049 2.462765,-3.749572 4.43789,-4.963002 5.411555,-3.344105 10.83949,-6.684213 16.632264,-9.325165 3.356496,-1.525331 6.737302,-2.987516 10.148903,-4.38562 0.574334,-0.263427 1.15179,-0.520147 1.723001,-0.790278 0.591325,-0.279646 2.32065,-1.203082 1.764379,-0.858941 -2.618605,1.620012 -10.65095,6.184027 -7.958084,4.690703 3.653097,-2.025817 7.234515,-4.178372 10.839513,-6.288593 2.13209,-1.24804 -12.81113,7.362399 -6.403107,3.732408 3.68807,-2.164508 7.366521,-4.345493 11.064211,-6.493528 0.588394,-0.341805 1.195374,-0.650568 1.793237,-0.975527 7.906502,-4.29746 -11.252501,6.835185 -3.78533,2.274022 0.508754,-0.310761 1.002377,-0.645646 1.503566,-0.968473 2.232594,-1.702588 4.341715,-3.545159 5.758831,-6.015759 1.526717,-2.591454 2.885276,-5.265714 3.128079,-8.324527 0.07242,-3.247327 -0.497882,-6.44465 -1.952424,-9.37741 0,0 9.753933,-5.553737 9.753933,-5.553737 z"
       id="path244" />
    <path
       style="stroke-width:0.26458332"
       d="m 133.94012,41.584554 c 2.80311,3.47512 5.55954,6.986016 8.33737,10.480902 2.65283,3.149746 5.192,6.390675 7.79884,9.576531 2.32772,2.782789 4.62284,5.590264 6.81103,8.486065 1.81558,2.77154 3.58158,5.574544 5.28141,8.418505 1.43012,2.492303 2.47744,5.169826 3.63755,7.789767 1.38412,3.395234 3.12102,6.61317 4.95045,9.783215 1.6532,2.833121 3.61018,5.417751 5.98367,7.675441 1.70922,1.45091 3.73504,2.13386 5.92188,2.40083 1.67393,0.12626 3.35535,0.0832 5.03245,0.0662 0,0 -9.0665,6.59805 -9.0665,6.59805 v 0 c -1.71534,0.01 -3.44204,0.0533 -5.14178,-0.22118 -2.32462,-0.46841 -4.44836,-1.40084 -6.22579,-3.01308 -2.40662,-2.36645 -4.39494,-5.057 -6.10022,-7.97284 -1.81188,-3.217592 -3.61108,-6.44226 -5.04383,-9.853146 -1.16827,-2.571301 -2.20419,-5.20599 -3.56654,-7.687551 -1.64698,-2.826168 -3.43228,-5.570839 -5.21382,-8.313343 -2.16921,-2.888105 -4.4278,-5.702988 -6.73481,-8.48083 -2.6045,-3.193383 -5.18044,-6.409669 -7.76981,-9.615747 -2.74766,-3.508729 -5.47773,-7.030616 -8.48203,-10.328195 0,0 9.59048,-5.789594 9.59048,-5.789594 z"
       id="path246" />
    <path
       style="stroke-width:0.26458332"
       d="m 177.07259,33.793625 c 2.98086,0.154866 5.84529,0.663271 8.59503,1.832989 2.48017,1.385937 3.2064,3.690387 3.59316,6.334458 0.42541,2.90785 -0.15466,5.283107 -1.62246,7.784727 -2.17729,2.779678 -5.24184,4.688737 -8.02903,6.803564 -3.38648,2.49178 -6.68808,5.097235 -10.07432,7.588782 -2.84423,2.112505 -5.79119,4.080502 -8.61317,6.222857 -3.12157,2.373508 -6.10685,4.928473 -8.81596,7.765238 -1.79889,2.109679 -3.68093,4.157321 -5.39988,6.333416 -1.5803,1.879406 -2.92531,3.90036 -4.07744,6.065795 -1.00003,1.642395 -1.59632,3.460617 -2.33441,5.220451 -0.94387,1.936025 -1.8286,3.863441 -2.36058,5.954948 -0.55714,2.55932 -0.54593,5.18542 -0.74599,7.78363 -0.41132,2.31779 -0.79992,4.64287 -1.24362,6.95507 -0.0863,0.29286 -0.17266,0.58572 -0.25899,0.87857 0,0 -10.16809,4.73428 -10.16809,4.73428 v 0 c 0.11408,-0.24799 0.22816,-0.49597 0.34224,-0.74395 0.55383,-2.25656 0.77962,-4.59029 1.34924,-6.84742 0.25481,-2.63685 0.18144,-5.3055 0.68008,-7.9207 0.43476,-2.17019 1.18379,-4.17067 2.19972,-6.13876 0.87607,-1.722452 1.26537,-3.657961 2.37448,-5.275216 1.05024,-2.248818 2.34114,-4.370822 3.99059,-6.23311 1.57949,-2.332977 3.70001,-4.263255 5.42962,-6.486316 2.63612,-2.935353 5.64093,-5.505926 8.74609,-7.933544 2.78864,-2.207477 5.75738,-4.159586 8.62158,-6.264931 3.42201,-2.440961 6.69051,-5.088927 10.08863,-7.563565 2.72954,-2.104387 5.63283,-4.010662 8.10433,-6.418016 1.62334,-2.300086 2.28174,-4.215421 1.94656,-7.06664 -0.2858,-2.272895 -0.7463,-4.255703 -2.98622,-5.33356 -2.72188,-1.04565 -5.55983,-1.409216 -8.46549,-1.534687 0,0 9.1343,-6.49836 9.1343,-6.49836 z"
       id="path254" />
    <path
       style="stroke-width:0.26458332;fill-opacity:1;fill:url(#linearGradient46)"
       d="m 28.0324,159.14197 c 3.697534,0.0369 7.395329,0.0587 11.093021,0.078 8.468122,0.0728 16.936596,0.0947 25.40503,0.0864 4.03738,0.17197 8.106592,-0.0443 12.123364,0.5117 3.470156,0.48035 6.925956,1.38203 10.332868,2.17986 4.958982,1.24849 10.013802,1.9832 15.108647,2.34246 3.53098,-0.006 7.00595,0.57371 10.48038,1.13659 4.22875,0.77973 8.40714,1.80674 12.50423,3.11037 3.16179,0.99396 6.23619,2.28071 9.21765,3.72809 3.77303,1.48497 7.42099,3.18266 10.79565,5.43338 3.1797,2.29055 6.47266,4.4516 9.35823,7.11497 1.81846,1.88564 3.35028,4.01606 5.01723,6.02821 1.03801,1.48596 2.02986,2.99925 3.00414,4.52731 0.4955,0.93424 0.27238,0.45855 0.6708,1.42638 0,0 -9.81175,5.47584 -9.81175,5.47584 v 0 c -0.32039,-0.84296 -0.13548,-0.4254 -0.55865,-1.25096 -0.93718,-1.50022 -1.90429,-2.97724 -2.91114,-4.43196 -1.57824,-2.00962 -3.082,-4.08788 -4.86694,-5.92574 -2.84023,-2.60453 -6.01023,-4.81228 -9.16872,-7.01004 -3.42306,-2.12705 -7.0517,-3.80947 -10.81299,-5.2581 -2.94189,-1.4003 -5.96365,-2.6524 -9.07235,-3.63325 -4.05847,-1.25619 -8.19005,-2.29286 -12.38358,-2.98764 -3.47764,-0.49242 -6.951378,-0.93683 -10.465944,-1.05367 -5.073322,-0.47411 -10.096424,-1.32202 -15.034734,-2.59294 -3.376887,-0.79009 -6.775849,-1.62817 -10.22173,-2.06795 -3.955938,-0.50487 -7.956658,-0.39958 -11.932155,-0.53467 -8.5477,-0.008 -17.09543,0.0145 -25.642826,0.0864 -3.769265,0.0194 -7.538625,0.0413 -11.30774,0.078 0,0 9.080009,-6.59701 9.080009,-6.59701 z"
       id="path256" />
  </g>
</svg>
